<svg width="73" height="72" viewBox="0 0 73 72" fill="none" xmlns="http://www.w3.org/2000/svg">
<path d="M30.2998 50.25C30.2998 49.0074 31.3072 48 32.5498 48C33.7924 48 34.7998 49.0074 34.7998 50.25V51.75C34.7998 52.9926 33.7924 54 32.5498 54C31.3072 54 30.2998 52.9926 30.2998 51.75V50.25Z" fill="#FFFFFF"/>
<path d="M40.0498 48C38.8072 48 37.7998 49.0074 37.7998 50.25V51.75C37.7998 52.9926 38.8072 54 40.0498 54C41.2924 54 42.2998 52.9926 42.2998 51.75V50.25C42.2998 49.0074 41.2924 48 40.0498 48Z" fill="#FFFFFF"/>
<path fill-rule="evenodd" clip-rule="evenodd" d="M66.2998 33C66.2998 42.8155 61.5859 47.3185 54.2985 49.3586C54.2994 49.4056 54.2998 49.4527 54.2998 49.5C54.2998 55.8907 54.2998 66 36.2998 66C18.2998 66 18.2998 55.8907 18.2998 49.5C18.2998 49.4527 18.3003 49.4056 18.3011 49.3586C11.0137 47.3185 6.2998 42.8155 6.2998 33C6.2998 16.4315 19.7313 6 36.2998 6C52.8683 6 66.2998 16.4315 66.2998 33ZM45.2999 27C45.2999 31.9706 41.2705 36 36.2999 36C31.3294 36 27.2999 31.9706 27.2999 27C27.2999 22.0294 31.3294 18 36.2999 18C41.2705 18 45.2999 22.0294 45.2999 27ZM60.1468 35.6649C59.0748 39.6659 56.2596 42.3879 53.859 41.7446C51.4584 41.1014 50.3814 37.3365 51.4535 33.3355C52.5256 29.3345 55.3407 26.6125 57.7413 27.2557C60.1419 27.899 61.2189 31.6639 60.1468 35.6649ZM20.5289 41.7444C22.9295 41.1011 24.0065 37.3362 22.9344 33.3352C21.8623 29.3342 19.0472 26.6122 16.6466 27.2555C14.246 27.8987 13.169 31.6636 14.2411 35.6646C15.3131 39.6656 18.1283 42.3876 20.5289 41.7444ZM47.0802 56.7847C48.1389 55.2196 48.2999 53.0074 48.2999 49.5C48.2999 49.2219 48.2135 48.2755 46.0937 47.0871C43.9613 45.8917 40.5416 45 36.2999 45C32.0583 45 28.6385 45.8917 26.5061 47.0871C24.3863 48.2755 24.2999 49.2219 24.2999 49.5C24.2999 53.0074 24.4609 55.2196 25.5197 56.7847C26.2128 57.8094 28.349 60 36.2999 60C44.2508 60 46.387 57.8094 47.0802 56.7847Z" fill="#FFFFFF"/>
</svg>
