<svg width="73" height="73" viewBox="0 0 73 73" fill="none" xmlns="http://www.w3.org/2000/svg">
<path d="M55.6006 24.1639C55.6006 27.4776 52.9143 30.1639 49.6006 30.1639C46.2869 30.1639 43.6006 27.4776 43.6006 24.1639C43.6006 20.8502 46.2869 18.1639 49.6006 18.1639C52.9143 18.1639 55.6006 20.8502 55.6006 24.1639Z" fill="#00225C"/>
<path fill-rule="evenodd" clip-rule="evenodd" d="M51.6234 11.4729C52.8808 10.394 53.0255 8.5 51.9466 7.2426C50.8676 5.9852 48.9736 5.84052 47.7162 6.91946C39.2374 14.1949 34.3729 20.0993 28.4268 30.217C24.9337 36.1609 21.9988 44.2999 19.9617 50.794C18.7489 54.6603 17.6332 58.5641 16.6823 62.5038C16.2998 64.1159 17.2967 65.7329 18.9088 66.1153C20.5082 66.4948 22.1428 65.4719 22.5227 63.8784C23.4333 60.0794 24.5177 56.3163 25.6866 52.5899C26.2149 50.9057 26.7953 49.1409 27.4207 47.3576L29.9161 48.4433L37.919 64.4888C37.919 64.4888 39.093 67.1136 41.9262 65.8318C44.539 64.6497 43.3338 61.9407 43.3338 61.9407L35.4504 46.2933L48.9802 41.1434C50.9656 40.3877 51.5582 37.8646 50.1168 36.3041L40.94 26.3691C39.9178 25.2624 39.8749 23.5693 40.8397 22.4122L41.7623 21.3057C44.5666 17.9182 47.6597 14.874 51.6234 11.4729ZM38.678 38.6798L40.4307 34.8426L42.6797 37.2244L38.678 38.6798Z" fill="#00225C"/>
</svg>
